<?xml version="1.0" standalone="no"?>
<!DOCTYPE svg PUBLIC "-//W3C//DTD SVG 20010904//EN"
 "http://www.w3.org/TR/2001/REC-SVG-20010904/DTD/svg10.dtd">
<svg version="1.0" xmlns="http://www.w3.org/2000/svg"
 width="548.000000pt" height="110.000000pt" viewBox="0 0 548.000000 110.000000"
 preserveAspectRatio="xMidYMid meet">

<g transform="translate(0.000000,110.000000) scale(0.100000,-0.100000)"
fill="#000000" stroke="none">
<path d="M988 998 c-4 -73 -13 -125 -32 -181 -33 -99 -36 -220 -6 -317 11 -36
23 -99 26 -140 7 -82 20 -104 84 -145 20 -12 79 -66 133 -119 l96 -96 386 0
385 0 0 200 0 200 798 0 c783 0 797 0 810 20 16 26 84 60 121 60 16 0 42 5 58
11 19 7 192 11 548 10 286 -1 545 -1 575 0 30 0 141 1 245 1 105 0 207 3 228
6 l37 5 0 128 0 129 -1710 0 -1710 0 0 165 0 165 -534 0 -533 0 -5 -102z m72
-322 c0 -69 14 -92 49 -81 23 7 36 55 29 110 -2 19 0 35 4 35 4 0 8 -28 8 -62
0 -68 -17 -98 -56 -98 -35 0 -54 36 -54 102 0 32 4 58 10 58 6 0 10 -28 10
-64z m192 7 l33 -58 6 60 c5 58 6 57 7 -25 l2 -85 -36 55 c-54 81 -56 82 -52
17 3 -32 1 -60 -4 -63 -4 -3 -8 31 -8 75 0 45 4 81 9 81 5 0 24 -26 43 -57z
m115 -23 c0 -44 -4 -80 -8 -80 -5 0 -9 36 -9 80 0 44 4 80 8 80 4 0 8 -36 9
-80z m133 70 c0 -5 -10 -9 -22 -7 -22 2 -23 -2 -28 -73 l-4 -75 -6 75 c-5 70
-6 75 -27 73 -13 -2 -23 2 -23 7 0 6 25 10 55 10 30 0 55 -4 55 -10z m100 0
c0 -5 -13 -10 -30 -10 -25 0 -30 -4 -30 -25 0 -20 5 -25 28 -26 l27 -2 -27 -4
c-23 -4 -28 -9 -28 -34 0 -27 3 -29 35 -29 19 0 35 -4 35 -10 0 -5 -20 -10
-45 -10 l-45 0 0 80 0 80 40 0 c22 0 40 -4 40 -10z m130 -10 c45 -45 9 -140
-53 -140 l-32 0 0 80 0 80 33 0 c19 0 40 -8 52 -20z m175 10 c-4 -6 -15 -8
-24 -5 -20 6 -44 -15 -33 -31 4 -5 19 -17 35 -27 29 -19 36 -54 15 -75 -15
-15 -65 -16 -74 0 -5 8 0 9 16 5 27 -7 60 8 60 27 0 8 -16 23 -35 35 -36 21
-49 64 -22 74 23 10 68 7 62 -3z m130 -1 c-4 -6 -13 -8 -20 -5 -24 9 -55 -23
-55 -58 0 -42 20 -68 53 -68 15 0 27 -4 27 -9 0 -19 -52 -8 -75 16 -48 47 -17
135 46 135 19 0 28 -4 24 -11z m55 -24 c0 -34 2 -35 36 -35 36 0 36 0 30 35
-6 29 -4 35 10 35 11 0 14 -5 10 -16 -3 -9 -7 -46 -7 -82 -2 -56 -3 -61 -8
-27 -5 36 -9 40 -38 43 -32 3 -33 2 -33 -37 0 -23 -4 -41 -10 -41 -6 0 -10 33
-10 80 0 47 4 80 10 80 6 0 10 -16 10 -35z m230 15 c43 -43 11 -140 -46 -140
-29 0 -64 44 -64 80 0 37 35 80 66 80 13 0 33 -9 44 -20z m156 -1 c28 -31 25
-96 -5 -120 -49 -40 -101 -8 -101 61 0 70 64 106 106 59z m74 -49 l0 -70 35 0
c19 0 35 -4 35 -10 0 -5 -20 -10 -45 -10 l-45 0 0 80 c0 47 4 80 10 80 6 0 10
-30 10 -70z m242 53 c26 -23 24 -90 -4 -120 -44 -47 -103 -14 -103 57 0 68 62
104 107 63z m138 7 c0 -5 -16 -10 -35 -10 -31 0 -35 -3 -35 -25 0 -20 5 -25
28 -26 l27 -1 -27 -11 c-21 -8 -28 -18 -30 -46 -2 -20 -6 1 -8 47 l-5 82 43 0
c23 0 42 -4 42 -10z m154 -32 c-1 -21 3 -38 7 -38 5 0 9 -11 9 -25 0 -29 -38
-58 -72 -53 -21 3 -23 8 -24 81 l-2 78 41 -3 c42 -3 42 -3 41 -40z m69 8 c-8
-53 4 -104 28 -111 35 -11 49 12 49 81 0 36 4 64 10 64 13 0 13 -91 0 -124
-11 -30 -49 -42 -79 -26 -18 9 -21 20 -21 80 0 39 4 70 9 70 6 0 7 -15 4 -34z
m207 23 c0 -6 -7 -9 -15 -5 -20 7 -45 -3 -45 -19 0 -7 16 -22 35 -34 37 -21
47 -55 23 -79 -15 -15 -78 -16 -78 -1 0 7 9 9 22 6 23 -6 58 8 58 23 0 6 -16
20 -35 32 -33 22 -47 62 -28 81 11 11 63 8 63 -4z m64 -64 c-1 -42 -4 -78 -8
-82 -3 -3 -6 30 -6 75 0 45 3 82 8 82 4 0 7 -34 6 -75z m98 18 l33 -58 3 58
c5 86 19 68 16 -20 -2 -43 -3 -80 -3 -83 -1 -3 -17 20 -37 50 -54 82 -57 83
-51 18 3 -32 2 -60 -3 -63 -5 -3 -10 31 -12 75 -4 98 7 103 54 23z m178 47 c0
-5 -16 -10 -35 -10 -31 0 -35 -3 -35 -25 0 -21 5 -25 33 -26 l32 -1 -30 -7
c-24 -5 -30 -12 -30 -31 0 -22 5 -25 38 -28 52 -4 47 -22 -7 -22 l-44 0 -4 80
-3 80 43 0 c23 0 42 -4 42 -10z m110 0 c0 -6 -10 -8 -23 -5 -15 4 -28 1 -36
-8 -9 -12 -7 -19 14 -35 14 -12 31 -22 37 -24 15 -5 13 -59 -3 -69 -20 -13
-69 -11 -69 2 0 7 9 9 21 6 56 -15 67 31 14 62 -36 21 -45 47 -23 69 15 15 68
16 68 2z m115 -1 c-4 -6 -13 -8 -21 -5 -19 7 -44 -3 -44 -19 0 -7 16 -22 35
-34 37 -21 47 -55 23 -79 -15 -15 -78 -16 -78 -1 0 7 10 9 24 5 16 -4 30 0 42
11 15 16 15 18 -12 40 -16 13 -32 23 -35 23 -13 0 -19 32 -9 51 8 13 21 19 46
19 22 0 33 -4 29 -11z m135 -5 c0 -24 22 -94 30 -94 3 0 14 25 24 55 10 33 23
55 32 55 11 0 14 -17 13 -82 l-1 -83 -12 65 c-12 71 -15 70 -40 -7 -10 -29
-19 -53 -21 -53 -2 0 -14 30 -27 68 l-23 67 -3 -67 c-2 -38 -7 -68 -13 -68
-10 0 -8 32 7 128 5 33 34 47 34 16z m227 -46 c12 -35 25 -71 28 -80 4 -10 3
-18 -3 -18 -6 0 -15 14 -21 30 -8 24 -16 30 -40 30 -25 0 -30 -5 -36 -30 -4
-16 -11 -30 -16 -30 -13 0 -12 3 17 86 15 41 32 74 38 74 6 0 21 -28 33 -62z
m113 5 l35 -58 6 60 c6 59 6 59 7 -22 1 -46 0 -83 -2 -83 -2 0 -21 28 -42 63
l-39 62 -6 -65 c-7 -80 -9 -76 -12 23 -1 47 2 77 8 77 6 0 26 -26 45 -57z
m179 -10 c13 -38 26 -74 29 -80 2 -7 0 -13 -6 -13 -6 0 -15 14 -21 30 -8 24
-16 30 -40 30 -25 0 -30 -5 -36 -30 -4 -16 -11 -30 -17 -30 -6 0 -8 6 -6 13 3
6 15 42 28 80 13 37 29 67 34 67 6 0 22 -30 35 -67z m151 58 c0 -6 -15 -11
-32 -13 -61 -6 -73 -95 -16 -117 30 -11 38 -6 38 30 0 16 5 29 11 29 6 0 9
-16 7 -37 -3 -35 -6 -38 -35 -41 -45 -4 -73 26 -73 78 0 49 27 80 70 80 17 0
30 -4 30 -9z m120 -1 c0 -5 -13 -10 -30 -10 -25 0 -30 -4 -30 -25 0 -21 5 -25
33 -27 l32 -1 -32 -4 c-29 -4 -33 -8 -33 -34 0 -27 3 -29 35 -29 19 0 35 -4
35 -10 0 -5 -18 -10 -39 -10 l-39 0 -4 80 -3 80 38 0 c20 0 37 -4 37 -10z m98
-52 l18 -63 20 59 c11 33 25 61 31 63 12 4 23 -51 23 -115 0 -26 -4 -41 -10
-37 -5 3 -10 32 -10 63 0 65 -10 60 -35 -16 -9 -28 -20 -50 -24 -48 -4 3 -14
30 -21 61 -18 76 -30 78 -30 6 0 -34 -5 -63 -12 -67 -8 -5 -9 6 -5 41 4 26 7
63 7 81 0 58 27 42 48 -28z m212 52 c0 -5 -13 -10 -30 -10 -25 0 -30 -4 -30
-25 0 -20 5 -25 28 -26 l27 -2 -27 -4 c-23 -4 -28 -9 -28 -34 0 -27 3 -29 35
-29 19 0 35 -4 35 -10 0 -5 -20 -10 -45 -10 l-45 0 0 80 0 80 40 0 c22 0 40
-4 40 -10z m94 -47 l36 -57 0 57 c0 31 3 57 8 57 4 0 8 -36 8 -80 1 -44 0 -80
-2 -80 -2 0 -22 27 -44 60 -22 33 -43 60 -46 60 -3 0 -3 -27 1 -60 5 -41 4
-60 -4 -60 -7 0 -11 29 -11 80 0 44 4 80 9 80 5 0 26 -26 45 -57z m186 46 c0
-6 -9 -8 -20 -4 -19 6 -20 2 -20 -69 0 -97 -18 -100 -22 -3 -3 68 -4 72 -25
70 -13 -2 -23 2 -23 7 0 6 25 10 55 10 32 0 55 -4 55 -11z"/>
<path d="M1660 655 c0 -57 2 -65 18 -65 44 0 73 78 42 114 -7 9 -23 16 -36 16
-23 0 -24 -3 -24 -65z"/>
<path d="M2250 710 c-42 -42 -7 -135 41 -110 27 15 41 54 29 84 -5 14 -18 30
-29 36 -17 8 -24 7 -41 -10z"/>
<path d="M2406 714 c-36 -35 -28 -91 14 -114 47 -25 81 69 40 110 -24 24 -34
25 -54 4z"/>
<path d="M2719 709 c-41 -41 -5 -134 42 -109 32 18 44 54 30 89 -16 37 -46 46
-72 20z"/>
<path d="M3027 723 c-4 -3 -7 -17 -7 -30 0 -27 21 -30 45 -6 16 16 16 17 -1
30 -20 15 -28 16 -37 6z"/>
<path d="M3022 628 c3 -28 6 -33 28 -30 13 1 27 8 31 14 12 20 -10 48 -37 48
-22 0 -25 -4 -22 -32z"/>
<path d="M4241 690 c-14 -42 -15 -40 14 -40 29 0 29 -1 11 40 l-13 32 -12 -32z"/>
<path d="M4531 690 c-14 -42 -15 -40 14 -40 29 0 29 -1 11 40 l-13 32 -12 -32z"/>
<path d="M350 1058 c0 -23 18 -41 33 -35 22 8 10 47 -14 47 -11 0 -19 -6 -19
-12z"/>
<path d="M411 1052 c-1 -17 4 -23 16 -20 19 3 31 38 14 38 -6 0 -8 -7 -5 -15
4 -8 1 -15 -4 -15 -6 0 -13 8 -15 18 -3 12 -5 11 -6 -6z"/>
<path d="M468 1058 c15 -15 16 -31 0 -22 -7 4 -8 3 -4 -4 11 -18 51 -7 53 14
3 18 3 18 -5 0 -6 -14 -11 -16 -16 -8 -4 7 -4 17 -1 22 3 6 -4 10 -16 10 -18
0 -20 -3 -11 -12z"/>
<path d="M294 1045 c-4 -8 -3 -23 1 -32 7 -17 8 -16 15 2 4 11 3 22 -1 23 -5
2 -7 8 -3 13 3 5 3 9 -1 9 -3 0 -8 -7 -11 -15z"/>
<path d="M537 1053 c-10 -10 -8 -35 2 -29 5 4 11 0 13 -6 3 -8 10 -4 17 11 10
18 10 22 1 16 -7 -4 -15 -2 -19 4 -4 6 -10 8 -14 4z"/>
<path d="M241 1027 c-8 -10 -7 -19 3 -32 12 -16 16 -17 30 -6 12 10 13 18 5
32 -12 22 -22 24 -38 6z m29 -18 c0 -5 -4 -9 -10 -9 -5 0 -10 7 -10 16 0 8 5
12 10 9 6 -3 10 -10 10 -16z"/>
<path d="M581 1021 c-10 -18 -6 -31 11 -31 5 0 7 4 4 9 -3 5 1 11 9 15 8 3 15
10 15 16 0 17 -29 11 -39 -9z"/>
<path d="M631 1001 c-14 -26 -14 -31 3 -31 16 0 29 37 16 45 -5 3 -14 -3 -19
-14z"/>
<path d="M367 1000 c-43 -11 -117 -47 -117 -57 0 -4 30 -38 68 -76 l67 -68 0
-227 0 -227 48 -3 47 -3 0 233 0 233 75 63 c41 34 75 67 75 73 0 18 -103 58
-165 63 -33 3 -77 1 -98 -4z m103 -50 c11 -11 20 -29 20 -40 0 -26 -34 -60
-62 -60 -50 0 -76 63 -41 102 21 24 58 23 83 -2z"/>
<path d="M671 977 c-15 -15 -14 -37 2 -37 14 0 37 19 37 31 0 13 -28 17 -39 6z"/>
<path d="M180 970 c0 -14 25 -29 37 -22 7 5 3 11 -13 19 -13 6 -24 8 -24 3z"/>
<path d="M142 948 c-8 -8 -9 -15 0 -25 8 -10 6 -13 -13 -11 -18 2 -24 -2 -24
-17 0 -28 35 -33 42 -6 3 12 11 21 18 21 18 0 26 25 12 39 -14 14 -20 14 -35
-1z m28 -13 c0 -8 -4 -15 -10 -15 -5 0 -10 7 -10 15 0 8 5 15 10 15 6 0 10 -7
10 -15z m-33 -51 c-9 -9 -28 6 -21 18 4 6 10 6 17 -1 6 -6 8 -13 4 -17z"/>
<path d="M718 926 c-17 -12 -17 -14 0 -29 16 -15 21 -15 38 -2 17 13 17 14 2
15 -11 0 -15 5 -12 15 7 18 -5 19 -28 1z"/>
<path d="M194 898 c-45 -49 -63 -81 -80 -149 -38 -148 41 -315 181 -380 79
-37 75 -47 75 205 l0 223 -71 67 c-40 36 -73 66 -74 66 0 0 -15 -15 -31 -32z"/>
<path d="M572 860 l-82 -71 2 -222 3 -222 25 4 c72 10 173 92 218 176 24 44
27 61 27 145 0 106 -17 154 -78 224 l-32 38 -83 -72z m58 -194 c0 -3 -4 -8
-10 -11 -5 -3 -10 -1 -10 4 0 6 5 11 10 11 6 0 10 -2 10 -4z m0 -41 c8 5 11 3
8 -6 -7 -21 -32 -17 -36 6 -2 15 -1 17 6 6 6 -8 15 -10 22 -6z m-80 -40 c-7
-9 -15 -13 -19 -10 -3 3 1 10 9 15 21 14 24 12 10 -5z m60 -10 c-14 -8 -34
-14 -45 -14 -13 0 -7 5 15 13 47 18 61 18 30 1z m84 -42 c-10 -7 -44 -13 -79
-13 -58 0 -85 11 -85 34 0 5 6 1 14 -10 13 -17 18 -18 46 -7 18 7 41 9 53 4
26 -9 57 -3 57 10 0 5 -5 9 -10 9 -6 0 -5 6 2 14 11 12 14 11 16 -7 2 -12 -4
-27 -14 -34z"/>
<path d="M750 870 c-12 -7 -12 -10 -1 -10 8 0 11 -6 7 -17 -6 -15 -4 -15 14 2
11 10 20 22 20 27 0 11 -21 10 -40 -2z"/>
<path d="M86 859 c3 -6 0 -15 -7 -20 -11 -6 -10 -9 4 -14 13 -6 14 -11 6 -26
-12 -23 -33 -14 -24 10 5 12 3 13 -6 4 -15 -15 -5 -43 16 -43 19 0 37 43 28
67 -4 11 -3 14 5 9 7 -4 12 -3 12 2 0 6 -7 13 -16 16 -22 9 -26 8 -18 -5z"/>
<path d="M780 830 c-12 -8 -12 -10 -1 -10 11 0 11 -3 1 -15 -14 -17 -6 -18 25
-5 11 5 15 9 8 9 -7 1 -10 8 -7 16 7 17 -4 19 -26 5z"/>
<path d="M789 767 c6 -8 8 -17 4 -20 -3 -4 0 -7 7 -7 10 0 11 -3 3 -11 -15
-15 -5 -39 16 -38 10 0 11 2 4 6 -15 5 -18 33 -3 33 5 0 14 -8 19 -17 6 -10
11 -13 11 -6 0 6 -9 18 -21 26 -13 9 -16 17 -10 22 20 12 11 25 -15 25 -21 0
-24 -3 -15 -13z"/>
<path d="M34 749 c-8 -14 17 -21 32 -8 12 10 13 9 8 -7 -6 -15 -4 -17 6 -7 7
6 9 16 6 21 -7 12 -45 12 -52 1z"/>
<path d="M37 693 c-4 -3 -7 -15 -7 -25 0 -23 38 -25 47 -2 8 21 -24 43 -40 27z
m33 -17 c0 -11 -19 -15 -25 -6 -3 5 1 10 9 10 9 0 16 -2 16 -4z"/>
<path d="M800 663 c0 -15 2 -16 10 -3 7 11 10 11 10 2 0 -7 4 -11 9 -8 5 4 12
0 15 -6 3 -7 5 -4 3 7 -3 27 -47 34 -47 8z"/>
<path d="M70 631 c0 -7 -4 -9 -10 -6 -5 3 -10 0 -10 -7 0 -9 -3 -9 -10 2 -8
13 -10 12 -10 -2 0 -23 38 -24 47 -3 3 9 3 19 -1 22 -3 4 -6 1 -6 -6z"/>
<path d="M800 605 c0 -19 5 -25 21 -25 18 0 19 2 9 15 -10 12 -9 15 4 15 10 0
14 5 11 10 -3 6 -15 10 -26 10 -14 0 -19 -7 -19 -25z"/>
<path d="M40 563 c0 -11 3 -14 8 -7 4 6 14 14 22 17 10 4 8 6 -7 6 -16 1 -23
-5 -23 -16z"/>
<path d="M780 553 c0 -15 2 -16 10 -3 7 11 10 11 10 2 0 -7 4 -11 9 -8 5 4 12
0 15 -6 3 -7 5 -4 3 7 -3 27 -47 34 -47 8z"/>
<path d="M55 540 c-8 -13 5 -13 25 0 13 8 13 10 -2 10 -9 0 -20 -4 -23 -10z"/>
<path d="M70 520 c-9 -6 -11 -10 -3 -10 7 0 10 -7 7 -15 -8 -19 7 -19 32 0 12
9 14 14 6 15 -7 0 -10 5 -7 10 8 13 -15 13 -35 0z"/>
<path d="M781 514 c13 -16 29 -19 29 -5 0 5 -9 11 -21 14 -16 4 -18 3 -8 -9z"/>
<path d="M760 503 c0 -5 9 -14 20 -21 11 -7 20 -8 20 -2 0 5 -9 14 -20 20 -11
6 -20 7 -20 3z"/>
<path d="M103 483 c-22 -8 -14 -21 10 -16 21 4 22 4 3 -11 -11 -9 -15 -16 -9
-16 16 0 36 28 28 40 -7 11 -13 11 -32 3z"/>
<path d="M740 474 c0 -2 9 -13 19 -23 13 -13 21 -16 24 -7 3 6 -6 17 -19 23
-13 6 -24 9 -24 7z"/>
<path d="M147 413 c-13 -12 -7 -33 8 -33 8 0 15 9 15 20 0 20 -11 26 -23 13z"/>
<path d="M700 399 c0 -24 23 -21 28 4 2 10 -3 17 -12 17 -10 0 -16 -9 -16 -21z"/>
<path d="M197 372 c-16 -17 -16 -20 -2 -32 13 -11 18 -10 31 6 14 18 15 18 8
-5 -4 -16 -3 -21 5 -17 6 4 11 2 11 -5 0 -8 4 -8 15 1 13 11 14 10 9 -4 -7
-19 24 -35 36 -17 5 9 9 6 13 -9 3 -12 12 -20 19 -18 14 5 24 48 11 49 -4 0
-16 2 -26 4 -10 2 -21 -4 -25 -13 -5 -14 -7 -12 -12 8 -4 14 -12 24 -19 22 -6
-1 -22 9 -34 24 -22 25 -23 25 -40 6z m16 -17 c-3 -9 -8 -14 -10 -11 -3 3 -2
9 2 15 9 16 15 13 8 -4z m130 -60 c-3 -9 -8 -14 -10 -11 -3 3 -2 9 2 15 9 16
15 13 8 -4z"/>
<path d="M643 373 c-10 -3 -10 -10 -1 -26 10 -21 10 -21 -9 -5 -18 17 -20 16
-33 -2 -10 -14 -17 -16 -27 -8 -9 7 -13 7 -13 0 0 -6 9 -16 19 -21 21 -12 81
12 81 31 0 5 7 8 15 4 18 -7 20 5 3 22 -13 13 -16 13 -35 5z"/>
<path d="M521 319 c-23 -9 -24 -10 -5 -25 10 -9 13 -13 7 -9 -7 3 -13 1 -13
-4 0 -12 23 -15 33 -4 4 3 2 12 -4 20 -14 16 2 18 19 1 6 -6 14 -9 17 -6 3 2
-3 12 -12 20 -13 12 -24 13 -42 7z"/>
<path d="M468 313 c-22 -5 -22 -13 -3 -39 11 -15 15 -16 15 -4 1 8 3 23 5 33
2 9 3 16 2 16 -1 -1 -10 -3 -19 -6z"/>
<path d="M369 288 c-9 -17 -9 -20 4 -15 8 3 20 0 27 -6 10 -10 12 -8 6 6 -3
10 -6 23 -6 28 0 17 -19 9 -31 -13z"/>
<path d="M420 301 c0 -7 7 -19 15 -27 13 -13 15 -13 15 -1 0 8 -7 20 -15 27
-11 9 -15 10 -15 1z"/>
<path d="M158 103 c4 -60 19 -83 55 -83 41 0 57 18 57 68 0 27 5 53 12 60 9 9
8 12 -8 12 -17 0 -19 -7 -19 -57 0 -58 0 -58 -30 -58 -30 0 -30 0 -30 58 0 51
-2 57 -21 57 -19 0 -20 -5 -16 -57z"/>
<path d="M316 144 c-9 -8 -16 -19 -16 -23 0 -11 34 -41 47 -41 6 0 17 -7 24
-17 11 -13 11 -17 2 -20 -7 -3 -13 -9 -13 -14 0 -6 8 -5 20 1 33 18 25 54 -15
73 -19 9 -35 21 -35 27 0 17 29 23 45 10 12 -10 15 -9 15 4 0 21 -53 22 -74 0z"/>
<path d="M429 146 c9 -11 12 -35 9 -71 -4 -47 -2 -55 12 -55 12 0 17 9 18 31
1 35 6 44 21 34 14 -8 14 -45 1 -45 -5 0 -10 -4 -10 -10 0 -16 16 -12 41 10
l24 20 -21 18 c-20 17 -20 19 -5 29 30 20 1 48 -54 51 -43 3 -47 1 -36 -12z
m66 -21 c0 -10 -6 -20 -12 -22 -8 -3 -13 5 -13 22 0 17 5 25 13 23 6 -3 12
-13 12 -23z"/>
<path d="M569 147 c6 -8 9 -16 7 -18 -11 -11 -9 -103 2 -107 8 -2 12 11 12 45
l1 48 23 -44 23 -45 17 32 c19 37 21 53 3 28 -11 -15 -15 -12 -35 28 -16 33
-28 46 -43 46 -17 0 -19 -3 -10 -13z"/>
<path d="M683 143 c-3 -10 -8 -22 -11 -27 -3 -5 1 -6 8 -1 10 6 12 -3 8 -44
-5 -47 -3 -52 14 -49 18 3 20 12 22 71 1 58 -1 67 -17 67 -10 0 -20 -8 -24
-17z"/>
<path d="M300 56 c0 -8 9 -20 21 -26 30 -17 31 -8 3 19 -19 18 -24 20 -24 7z"/>
</g>
</svg>
